<svg xmlns="http://www.w3.org/2000/svg" viewBox="0 0 7.61 6.66" width="45" height="41"><defs><style>.a{fill:#fff}</style></defs><path class="a" d="M3.8 6.66a1.39 1.39 0 01-1.08-.52L.32 3.21a1.41 1.41 0 01.19-2 1.46 1.46 0 012 .2l2.4 2.94a1.4 1.4 0 01-.2 2 1.37 1.37 0 01-.91.31zm-2.4-5.3a.94.94 0 00-.6.22 1 1 0 00-.14 1.34l2.4 2.94A1 1 0 004.41 6a.93.93 0 00.34-.65.94.94 0 00-.21-.7l-2.4-2.93a.93.93 0 00-.74-.36z"/><path class="a" d="M1.69 4.76a.21.21 0 01-.17-.08.22.22 0 010-.32l1.85-1.49a.23.23 0 11.29.35L1.83 4.71a.24.24 0 01-.14.05zm4.24-1.39a1.68 1.68 0 01-1.3-.62 1.63 1.63 0 01-.37-1.23A1.64 1.64 0 014.87.38 1.62 1.62 0 015.93 0a1.71 1.71 0 011.31.62A1.69 1.69 0 017 3a1.72 1.72 0 01-1.07.37zm0-2.92a1.24 1.24 0 00-.78.28 1.19 1.19 0 00-.45.83 1.29 1.29 0 00.3.91 1.28 1.28 0 001.74.17A1.23 1.23 0 005.93.45z"/><path class="a" d="M5.49 3.3h-.06a.22.22 0 01-.15-.3L6.05.23a.22.22 0 01.27-.16.24.24 0 01.16.28l-.77 2.78a.23.23 0 01-.22.17z"/></svg>