<svg xmlns="http://www.w3.org/2000/svg" viewBox="0 0 7.96 9.91" width="41" height="53"><defs><style>.a{fill:#fff}</style></defs><path class="a" d="M4.9 7.81H.66c-.05 0-.1-.06-.1-.14v-.5c0-.08 0-.14.1-.14H4.9c.06 0 .1.06.1.14v.5c0 .08 0 .14-.1.14zM.76 7.54h4V7.3h-4zm7.02 2.37H.18A.18.18 0 010 9.73v-1a.18.18 0 01.18-.18h7.6a.18.18 0 01.22.18v1a.18.18 0 01-.22.18zM.36 9.55H7.6v-.64H.36z"/><path class="a" d="M7.68 8.91H4.22a.23.23 0 01-.17-.11.21.21 0 010-.19 4.53 4.53 0 001.1-2.83 2.77 2.77 0 00-1-1.9.17.17 0 010-.23l.6-.93a.18.18 0 01.19-.08c.61.14 3.62 1.08 2.94 6.13a.18.18 0 01-.2.14zm-3.09-.38h2.94C8.05 4.21 5.7 3.21 5 3l-.44.7a3 3 0 011 2 4.56 4.56 0 01-.97 2.83zM5 1.27L3.51.86a.1.1 0 01-.08-.07.12.12 0 010-.1L3.58.1a.16.16 0 01.17-.1l1.44.41a.14.14 0 01.09.17l-.16.59a.11.11 0 01-.07.08.07.07 0 01-.05.02zM3.71.64L4.9 1 5 .63 3.8.3z"/><path class="a" d="M4 5.21l-1.78-.5a.31.31 0 01-.11-.09.15.15 0 010-.13L3 1.23a.17.17 0 01.22-.12l1.78.5a.18.18 0 01.13.22l-.94 3.25a.14.14 0 01-.09.11.11.11 0 01-.1.02zm-1.56-.8l1.43.4.84-2.91-1.43-.4z"/><path class="a" d="M5.21 2l-2.33-.7a.14.14 0 01-.09-.17L3 .56a.16.16 0 010-.08.12.12 0 01.1 0l2.29.65a.13.13 0 01.1.16l-.16.57a.11.11 0 01-.07.08zm-2.13-.92l2 .57.09-.31-2-.58zM4.2 5.81l-2.42-.68a.12.12 0 01-.08-.06.12.12 0 010-.1l.14-.52A.14.14 0 012 4.36L4.39 5a.13.13 0 01.09.17l-.15.51a.1.1 0 01-.06.08.08.08 0 01-.07.05zM2 4.91l2.13.6.07-.26-2.13-.6z"/><path class="a" d="M3.36 6.22l-1-.29a.13.13 0 01-.08-.07.16.16 0 010-.1l.15-.52a.13.13 0 01.16-.09l1 .3a.13.13 0 01.09.16l-.14.52a.14.14 0 01-.07.08zm-.88-.52l.78.22.08-.26-.79-.22zM4.38 4h-.07a.9.9 0 01-.85-1 .88.88 0 01.89-.85.89.89 0 01.85.93.78.78 0 01-.82.92zm0-1.51a.62.62 0 10-.06 1.21h.06c.41 0 .57-.17.59-.6a.62.62 0 00-.59-.64z"/><path class="a" d="M5 3.11a.69.69 0 11-.66-.72.68.68 0 01.66.72z"/></svg>