<svg xmlns="http://www.w3.org/2000/svg" viewBox="0 0 8.42 9.04" width="47" height="53"><defs><style>.a{fill:#fff}</style></defs><path class="a" d="M4.34 9c-1.11 0-2-2-2-4.52S3.23 0 4.34 0s2 2 2 4.52S5.46 9 4.34 9zm0-8.68C3.55.36 2.71 2 2.71 4.52s.84 4.16 1.63 4.16S6 7 6 4.52 5.13.36 4.34.36z"/><path class="a" d="M6.85 7.33a7.68 7.68 0 01-3.47-1.07 8.44 8.44 0 01-2.48-2C.3 3.5.12 2.81.39 2.33a1.51 1.51 0 011.44-.62 7.75 7.75 0 013.48 1.07 8.71 8.71 0 012.48 2c.59.76.77 1.45.5 1.94a1.53 1.53 0 01-1.44.61zm-5-5.27A1.24 1.24 0 00.7 2.5c-.19.35 0 .91.48 1.54a7.94 7.94 0 002.37 1.9 7.4 7.4 0 003.3 1A1.24 1.24 0 008 6.54c.17-.35 0-.91-.5-1.54a8 8 0 00-2.37-1.9 7.4 7.4 0 00-3.3-1.04z"/><path class="a" d="M1.83 7.33A1.54 1.54 0 01.38 6.7C.11 6.21.29 5.53.9 4.77a8.27 8.27 0 012.48-2 7.68 7.68 0 013.47-1.06 1.54 1.54 0 011.45.63c.27.49.09 1.17-.51 1.93a8.45 8.45 0 01-2.49 2 7.68 7.68 0 01-3.47 1.06zm5-5.26a7.44 7.44 0 00-3.3 1A8.1 8.1 0 001.18 5C.68 5.62.5 6.18.7 6.53S1.26 7 1.83 7a7.44 7.44 0 003.3-1 8.29 8.29 0 002.38-1.9c.49-.68.67-1.24.49-1.59s-.57-.44-1.15-.44z"/><path class="a" d="M4.34 5.24a.72.72 0 11.72-.72.72.72 0 01-.72.72zm0-1.08a.36.36 0 10.36.36.36.36 0 00-.36-.36zM6 8.07a.53.53 0 01-.53.53.53.53 0 01-.53-.53.52.52 0 01.53-.53.53.53 0 01.53.53zM1.06 3.75a.53.53 0 01-.53.53.53.53 0 010-1.06.53.53 0 01.53.53zm6.51-1.87A.53.53 0 117 1.35a.54.54 0 01.57.53z"/></svg>