<svg xmlns="http://www.w3.org/2000/svg" viewBox="0 0 8.9 9.16" width="43" height="45"><defs><style>.a{fill:#fff}</style></defs><path class="a" d="M5.63 9.16H3.26A.22.22 0 013 8.93V7.34l-1.29.93a.23.23 0 01-.32 0L0 6.3a.23.23 0 010-.16A.24.24 0 01.09 6L2 4.58.09 3.17A.24.24 0 010 3a.25.25 0 010-.17L1.43.93a.23.23 0 01.31-.05L3 1.82V.22A.22.22 0 013.26 0h2.37a.22.22 0 01.23.22v1.6L7.15.88a.33.33 0 01.17 0 .23.23 0 01.14.09l1.39 1.88a.22.22 0 010 .32l-2 1.41L8.8 6a.24.24 0 01.09.15.19.19 0 010 .16L7.46 8.22a.21.21 0 01-.31 0l-1.29-.88v1.59a.23.23 0 01-.23.23zm-2.14-.45h1.92V6.9a.24.24 0 01.12-.2.21.21 0 01.23 0l1.47 1.08 1.13-1.56-2-1.46a.22.22 0 010-.36l2-1.46-1.13-1.56-1.47 1.06a.21.21 0 01-.23 0 .24.24 0 01-.12-.2V.45H3.49v1.81a.23.23 0 01-.13.2.21.21 0 01-.23 0L1.66 1.38.54 2.94l2 1.46a.22.22 0 010 .36l-2 1.46 1.12 1.56 1.47-1.06a.21.21 0 01.23 0 .23.23 0 01.13.2z"/><path class="a" d="M4.45 7.59a.14.14 0 01-.14-.14v-5a.13.13 0 01.14-.13.13.13 0 01.13.13v5a.13.13 0 01-.13.14z"/><path class="a" d="M4.45 7.16a.65.65 0 01-.47-.52.46.46 0 01.35-.58h.1c.1 0 .26-.1.29-.17a.17.17 0 000-.08 1 1 0 00-.34-.2.93.93 0 01-.44-.28.38.38 0 01-.06-.35c.08-.23.39-.32.63-.39.16 0 .26-.13.27-.18s0-.08-.14-.15a1.41 1.41 0 00-.21-.1c-.35-.17-.84-.4-.78-.74A.42.42 0 013.91 3a1.21 1.21 0 01.92 0 .14.14 0 01.07.18.13.13 0 01-.18.06 1 1 0 00-.68 0 .17.17 0 00-.1.13c0 .14.46.37.64.45l.23.12c.24.15.28.31.26.42s-.19.32-.45.4c-.16.05-.42.13-.46.23a.16.16 0 000 .12.93.93 0 00.31.18.93.93 0 01.48.32.4.4 0 010 .3c-.07.18-.29.26-.45.32h-.14c-.17.07-.21.09-.19.3s.14.23.31.3a.14.14 0 01.07.18.13.13 0 01-.1.15z"/><path class="a" d="M5 3.47a.28.28 0 01-.37 0 .27.27 0 01-.1-.35.26.26 0 01.37 0 .28.28 0 01.1.35z"/></svg>