<svg xmlns="http://www.w3.org/2000/svg" viewBox="0 0 9.67 9.03" width="44" height="42"><path d="M3 4.6h-.77a.13.13 0 01-.13-.14v-.67h-.67a.13.13 0 01-.13-.13v-.72a.13.13 0 01.13-.14h.67v-.67A.13.13 0 012.23 2H3a.13.13 0 01.14.13v.67h.67a.13.13 0 01.13.14v.72a.13.13 0 01-.13.13h-.72v.67A.14.14 0 013 4.6zm-.58-.27h.45v-.67A.13.13 0 013 3.52h.67v-.45H3a.13.13 0 01-.13-.13v-.67h-.5v.67a.13.13 0 01-.14.13h-.66v.45h.66a.14.14 0 01.14.14z"/><path d="M9.49 6.7H.18A.18.18 0 010 6.52V1.19A.18.18 0 01.18 1h7.19a.18.18 0 01.15.08l2.11 3a.14.14 0 010 .1v2.34a.18.18 0 01-.14.18zM.36 6.35h9V4.22l-2-2.85h-7z"/><path d="M6.07 1.37h-1a.18.18 0 01-.18-.18v-1A.18.18 0 015.06 0h1a.18.18 0 01.18.18v1a.18.18 0 01-.17.19zM5.24 1h.65V.36h-.65zm3.2 3.25H5.78a.18.18 0 01-.18-.18v-2a.18.18 0 01.18-.18H7a.17.17 0 01.13.11l1.42 2a.19.19 0 01.07.14.18.18 0 01-.18.11zM6 3.89h2.08L6.9 2.26H6zm3.35 1.17h-.49a.13.13 0 010-.26h.49a.13.13 0 110 .26zm0 .57h-.49a.13.13 0 01-.13-.13.13.13 0 01.13-.14h.49a.14.14 0 01.14.14.13.13 0 01-.14.13zM5 6.61a.18.18 0 01-.18-.18V2.08a.18.18 0 01.36 0v4.35a.18.18 0 01-.18.18z"/><path d="M5 5.33H.26a.13.13 0 01-.13-.13.13.13 0 01.13-.14H5a.14.14 0 01.14.14.13.13 0 01-.14.13zM2 9a1.23 1.23 0 111.26-1.19A1.22 1.22 0 012 9zm0-2.06a.87.87 0 10.86.87.86.86 0 00-.86-.87zM7.39 9a1.23 1.23 0 111.22-1.19A1.22 1.22 0 017.39 9zm0-2.09a.87.87 0 10.86.87.87.87 0 00-.86-.84zm-1-1.75H6a.35.35 0 110-.69h.4a.35.35 0 010 .69z"/></svg>