<svg xmlns="http://www.w3.org/2000/svg" viewBox="0 0 7.28 12.08" width="31" height="54"><path d="M6.84 8.64a.22.22 0 01-.22-.22V4.2c0-.08-.06-1.95-3.13-1.95-2.56 0-2.75 1.89-2.76 2V8.4a.23.23 0 01-.23.22.22.22 0 01-.22-.22V4.2s.23-2.4 3.2-2.4c3.53 0 3.58 2.38 3.58 2.4v4.22a.23.23 0 01-.22.22z"/><path d="M6.8 12.08H.49a.21.21 0 01-.2-.13A3.16 3.16 0 010 10.64a3.23 3.23 0 013.23-3.22h.83a3.22 3.22 0 013.22 3.22A3.15 3.15 0 017 11.95a.23.23 0 01-.2.13zm-6.16-.44h6a2.85 2.85 0 00.18-1 2.77 2.77 0 00-2.77-2.77h-.83a2.78 2.78 0 00-2.78 2.77 2.69 2.69 0 00.2 1z"/><path d="M3.64 11.82a.21.21 0 01-.17-.12L2.25 7.81a.18.18 0 010-.16.21.21 0 01.15-.07h2.56a.18.18 0 01.17.24L3.79 11.7a.17.17 0 01-.15.12zm-1-3.88l1 3.13 1.08-3.13zm1.02-.6a2.58 2.58 0 01-2.6-2.57.18.18 0 01.36 0 2.21 2.21 0 002.21 2.21 2.06 2.06 0 002.21-2 .18.18 0 11.36 0 2.42 2.42 0 01-2.54 2.36z"/><path d="M3.49 11.78a.21.21 0 01-.1 0l-1.07-1.11a.14.14 0 010-.19l.36-.36-1.21-.25a.11.11 0 01-.09-.06.17.17 0 010-.12l.76-1.89a.13.13 0 01.17-.08.15.15 0 01.08.18l-.7 1.74 1.3.27a.13.13 0 01.1.09.12.12 0 010 .14l-.44.44 1 1a.13.13 0 010 .19.15.15 0 01-.16.01z"/><path d="M3.82 11.78a.18.18 0 01-.1 0 .14.14 0 010-.19l1-1-.44-.44a.15.15 0 010-.14.17.17 0 01.11-.09l1.3-.27-.7-1.74a.15.15 0 01.08-.18.13.13 0 01.17.08l.75 1.89a.13.13 0 010 .12.11.11 0 01-.09.06l-1.22.25.36.36a.13.13 0 010 .19l-1.08 1.11a.15.15 0 01-.14-.01zm2.47-.54h-.74a.13.13 0 01-.14-.13v-.59a.14.14 0 01.14-.14h.74a.13.13 0 01.13.14v.55a.13.13 0 01-.13.17zm-.61-.27h.45v-.28h-.47z"/><path d="M4.66 9.15H2.82a.13.13 0 01-.14-.13.14.14 0 01.14-.14h1.84a.14.14 0 01.14.14.13.13 0 01-.14.13zm.37-6.55a.2.2 0 01-.14-.06 2.12 2.12 0 00-2.53 0 .2.2 0 01-.17.05.31.31 0 01-.15-.08l-1-1.26a.25.25 0 010-.17.24.24 0 01.09-.15 3.94 3.94 0 015.06 0 .24.24 0 01.09.15.25.25 0 01-.05.17l-1 1.26a.26.26 0 01-.16.09zM3.6 1.66a2.45 2.45 0 011.39.4l.71-.9a3.41 3.41 0 00-4.15 0l.71.9a2.44 2.44 0 011.34-.4zm2.32 3.46a3.89 3.89 0 01-2.41-1.16 3.3 3.3 0 01-2.18 1 .18.18 0 110-.35 3 3 0 002-1 .17.17 0 01.13-.07.14.14 0 01.14.06 3.78 3.78 0 002.3 1.18.18.18 0 01.18.18.19.19 0 01-.16.16zm-3.23.24a.2.2 0 01-.2.19.2.2 0 01-.19-.19.19.19 0 01.19-.19.19.19 0 01.2.19zm2.16 0a.19.19 0 01-.19.19.2.2 0 01-.19-.19.19.19 0 01.19-.19.18.18 0 01.19.19z"/></svg>