<svg xmlns="http://www.w3.org/2000/svg" viewBox="0 0 10.03 9.46" width="51" height="46"><path d="M6.72 8.89a.14.14 0 01-.11-.06L4.88 6.49a.14.14 0 11.22-.16l1.73 2.34a.14.14 0 010 .19z"/><path d="M5.28 9.46a2.69 2.69 0 01-.4 0 2.63 2.63 0 01-1.71-1L.51 4.8A2.63 2.63 0 010 2.86a2.57 2.57 0 011-1.71l.35-.22a.6.6 0 01.47-.11.58.58 0 01.41.25l1.16 1.57a.74.74 0 01.15.52.73.73 0 01-.25.48L2.84 4l1.74 2.4.51-.32A.76.76 0 015.62 6a.71.71 0 01.46.29l1.16 1.56a.6.6 0 01.12.47.64.64 0 01-.25.41L6.82 9a2.61 2.61 0 01-1.54.46zM1.74 1.25a.17.17 0 00-.13 0l-.29.21a2.15 2.15 0 00-.86 1.46 2.22 2.22 0 00.4 1.62l2.66 3.6A2.16 2.16 0 005 9a2.1 2.1 0 001.61-.4l.29-.21a.22.22 0 00.08-.13.18.18 0 000-.14L5.73 6.54a.25.25 0 00-.19-.12.29.29 0 00-.22 0l-.68.41a.22.22 0 01-.29 0l-2-2.68a.22.22 0 010-.3L3 3.31a.3.3 0 00.1-.2.31.31 0 00-.1-.22L1.88 1.33a.18.18 0 00-.13-.08z"/><path d="M2.94 3.78a.14.14 0 01-.11-.06L1.11 1.38a.13.13 0 010-.19.13.13 0 01.18 0l1.76 2.37a.14.14 0 010 .19.11.11 0 01-.11.03zm3.95 2.59h-.08a.18.18 0 01-.1-.19l.13-.87a2.72 2.72 0 01-2.57-2.65A2.78 2.78 0 017.15 0 2.78 2.78 0 0110 2.66a2.68 2.68 0 01-2 2.51L7 6.31a.19.19 0 01-.11.06zm.26-6a2.42 2.42 0 00-2.52 2.3 2.39 2.39 0 002.43 2.27.21.21 0 01.13.06.18.18 0 010 .14l-.08.47.66-.73a.19.19 0 01.09 0 2.31 2.31 0 001.81-2.22A2.42 2.42 0 007.15.36z"/><path d="M7.59 4.35H6.7a.18.18 0 01-.17-.18v-.81h-.82a.18.18 0 01-.18-.18v-.89a.18.18 0 01.18-.18h.82V1.3a.18.18 0 01.17-.18h.89a.18.18 0 01.18.18v.81h.81a.18.18 0 01.18.18v.89a.18.18 0 01-.18.18h-.81v.81a.18.18 0 01-.18.18zM6.88 4h.53v-.82A.18.18 0 017.59 3h.81v-.53h-.81a.18.18 0 01-.18-.18v-.81h-.53v.81a.18.18 0 01-.18.18h-.81V3h.81a.18.18 0 01.18.18z"/></svg>