<svg xmlns="http://www.w3.org/2000/svg" viewBox="0 0 10.63 9.23" width="91" height="73"><path d="M.81 9.23A.69.69 0 01.3 9a1.26 1.26 0 01-.3-.92V7.7c0-1.28-.07-3 2.39-5.45a2.4 2.4 0 011.27-.71c.27 0 .7.14.7 1.09v4s.13 1.26-.72 1.51a3.61 3.61 0 01-.53.12A2.66 2.66 0 002 8.73a2.72 2.72 0 01-1.19.5zM3.67 2a2 2 0 00-1 .59C.37 4.84.4 6.49.43 7.69v.39c0 .41.08.58.16.65a.28.28 0 00.21.08 2.26 2.26 0 001-.43A2.91 2.91 0 013 7.8l.5-.12c.5-.15.5-1.06.5-1.07v-4C4 2.19 3.86 2 3.67 2zm6.16 7.23a2.6 2.6 0 01-1.21-.49 2.69 2.69 0 00-1.11-.53A3.92 3.92 0 017 8.09c-.84-.25-.72-1.48-.72-1.53V2.63c0-.95.44-1.09.7-1.09a2.44 2.44 0 011.28.71c2.46 2.41 2.42 4.17 2.39 5.45v.38a1.3 1.3 0 01-.28.95.71.71 0 01-.54.2zM7 2c-.18 0-.27.23-.27.67v4s-.09 1 .41 1.1l.49.12a2.74 2.74 0 011.24.57 2.38 2.38 0 001 .44.28.28 0 00.13-.17.91.91 0 00.16-.65v-.39c0-1.2.07-2.85-2.26-5.14A2 2 0 007 2z" fill="#fff"/><path d="M6.37 3.55s-.84-.27-.84-1V.36h-.47v2.23c0 .68-.8.94-.84 1A.17.17 0 014 3.42a.18.18 0 01.11-.22s.59-.2.59-.61V.18A.18.18 0 014.88 0h.78a.18.18 0 01.18.18v2.41c0 .42.58.61.59.61a.18.18 0 01.11.22.17.17 0 01-.17.13z" fill="#fff"/><path d="M4.16 4.53A.17.17 0 014 4.38a.18.18 0 01.13-.21 1.71 1.71 0 001-.75.16.16 0 01.15-.07.18.18 0 01.15.08c.12.21.54.73 1 .73a.18.18 0 110 .36 1.58 1.58 0 01-1.13-.69 2 2 0 01-1 .69zm1.5-3.37h-.78A.13.13 0 014.75 1a.13.13 0 01.13-.11h.78a.13.13 0 01.13.11.13.13 0 01-.13.16zm0 .68h-.78a.13.13 0 01-.13-.13.13.13 0 01.13-.14h.78a.13.13 0 01.13.14.13.13 0 01-.13.13zm0 .67h-.78a.13.13 0 010-.26h.78a.13.13 0 010 .26z" fill="#fff"/></svg>