<svg xmlns="http://www.w3.org/2000/svg" viewBox="0 0 9.91 8.85" width="80" height="71"><path d="M4.81 8.85h-.09A10.41 10.41 0 01.2 3.69a2.63 2.63 0 01.25-2.5A2.8 2.8 0 012.71 0a2.85 2.85 0 012.15 1 3 3 0 012.21-1 2.87 2.87 0 012.4 1.37 2.77 2.77 0 01.15 2.73 9.53 9.53 0 01-4.71 4.72zM2.71.45a2.33 2.33 0 00-1.89 1 2.23 2.23 0 00-.2 2.09 10.11 10.11 0 004.22 4.82 9.34 9.34 0 004.38-4.44 2.33 2.33 0 00-.13-2.3 2.44 2.44 0 00-2-1.17A2.72 2.72 0 005 1.52l-.18.22-.16-.23A2.5 2.5 0 002.71.45z" fill="#fff"/><path fill="#fff" d="M5.2 6.66L3.64 2.81l-.93 1.91H.85v-.35h1.63l1.19-2.44L5.2 5.72l1.16-2.76.78 1.41h2.15v.35H6.93l-.53-.94-1.2 2.88z"/></svg>