<svg xmlns="http://www.w3.org/2000/svg" viewBox="0 0 10.73 7.75" width="91" height="62"><path d="M9.83 6.46H4.01L.2 5.05a.23.23 0 01-.15-.21v-.78a.23.23 0 01.23-.23h2.9l1.19-1.77a1.58 1.58 0 01.59-.53 1.65 1.65 0 01.78-.2H7.8a1.85 1.85 0 011 .32 1.78 1.78 0 01.69.84l.78 1.75a1.67 1.67 0 01.16.43 1.86 1.86 0 01.06.48v.63a.63.63 0 01-.19.47.67.67 0 01-.47.21zm-5.7-.44h5.7a.24.24 0 00.22-.22v-.63A1.5 1.5 0 0010 4.8a1.35 1.35 0 00-.14-.35l-.74-1.79a1.43 1.43 0 00-.53-.64 1.39 1.39 0 00-.79-.24H5.69a1.26 1.26 0 00-.57.14 1.24 1.24 0 00-.43.39L3.44 4.18a.23.23 0 01-.19.1H.45v.4z" fill="#fff"/><path d="M1.53 4.24H.2a.22.22 0 01-.23-.22V2.69a.22.22 0 01.23-.22h.63a.23.23 0 01.2.12l.63 1.29a.23.23 0 01.06.16.22.22 0 01-.19.2zM.45 3.79h.75L.76 2.9H.49zm9.33 3.96H3.05a.22.22 0 01-.22-.22.22.22 0 01.22-.23h6.73a.57.57 0 00.52-.34.24.24 0 01.29-.13.22.22 0 01.13.29 1 1 0 01-.94.63zM6.95 1.57a.13.13 0 01-.13-.13V.57a.31.31 0 00-.61 0v.87a.13.13 0 01-.14.13.13.13 0 01-.13-.13V.57a.58.58 0 011.15 0v.87a.13.13 0 01-.14.13zm2.18 2.59H7.37a.12.12 0 01-.17-.12V2.47a.12.12 0 01.13-.12h.35a1.3 1.3 0 01.63.15 1.23 1.23 0 01.44.4l.45 1.09a.13.13 0 010 .12.12.12 0 01-.07.05zm-1.64-.25h1.45l-.37-.89a1 1 0 00-.33-.3 1.11 1.11 0 00-.52-.13h-.23z" fill="#fff"/><path d="M7.6 1.24c-.72 0-.76 0-.76-.16V.64a.12.12 0 01.12-.13l2.4-.23a.14.14 0 01.1 0 .12.12 0 01.05.09v.65a.15.15 0 01-.14.14zM7.11.96h2.13V.59l-2.13.2zm-1.66.28H3.67a.15.15 0 01-.13-.14V.45a.12.12 0 01.05-.09.12.12 0 01.1 0l2.4.23a.12.12 0 01.12.13v.42c-.01.1-.01.1-.76.1zM3.81.95h2.13V.77L3.81.57zm1.12 6.63a.18.18 0 01-.18-.18V6.24a.18.18 0 11.36 0v1.13a.18.18 0 01-.18.21zm3.97 0a.18.18 0 01-.18-.18V6.24a.18.18 0 01.36 0v1.13a.18.18 0 01-.18.21zM6.66 6.24a.09.09 0 01-.09-.09V2.47a.09.09 0 01.18 0v3.67a.09.09 0 01-.09.1zm1.43-1.51h-.63a.11.11 0 01-.11-.12.11.11 0 01.11-.11h.63a.11.11 0 01.11.11.11.11 0 01-.11.12z" fill="#fff"/></svg>