<svg xmlns="http://www.w3.org/2000/svg" viewBox="0 0 9.03 9.26" width="45" height="50"><path d="M3.57 6.26h-2a1.59 1.59 0 01-1.1-.47A1.61 1.61 0 010 4.66V1.73a.68.68 0 01.68-.68h.59a.22.22 0 01.22.22.22.22 0 01-.22.23H.68a.23.23 0 00-.17.07.23.23 0 00-.06.16v2.93a1.11 1.11 0 00.34.81 1.11 1.11 0 00.81.34h2a.23.23 0 110 .45z"/><path d="M1.81 2.42a.67.67 0 01-.68-.67V.67a.68.68 0 011.35 0v1.08a.67.67 0 01-.67.67zm0-2a.22.22 0 00-.23.22v1.11a.23.23 0 10.45 0V.67a.22.22 0 00-.22-.22zm2.57 5.84H3.2A.22.22 0 013 6a.22.22 0 01.22-.23h1.16a1.16 1.16 0 001.15-1.11V1.73a.2.2 0 00-.07-.16.2.2 0 00-.16-.07h-.59a.22.22 0 01-.22-.23.22.22 0 01.22-.22h.59a.68.68 0 01.7.68v2.93a1.6 1.6 0 01-1.6 1.6z"/><path d="M4.17 2.42a.67.67 0 01-.67-.67V.67a.68.68 0 011.35 0v1.08a.67.67 0 01-.68.67zm0-2A.22.22 0 004 .67v1.08a.23.23 0 10.45 0V.67a.22.22 0 00-.28-.22zM5 9.26H3.69a1.08 1.08 0 01-1.08-1.08V6a.23.23 0 11.45 0v2.18a.62.62 0 00.63.63H5a.44.44 0 00.45-.45v-.83a.65.65 0 01.65-.64h.82a.22.22 0 110 .44h-.85a.25.25 0 00-.14.06.2.2 0 00-.06.14v.83a.89.89 0 01-.9.9z"/><path d="M7.9 8.1A1.12 1.12 0 119 7a1.12 1.12 0 01-1.1 1.1zm0-1.89a.77.77 0 10.77.79.77.77 0 00-.77-.79z"/><path d="M7.9 7.46A.48.48 0 118.38 7a.48.48 0 01-.48.46zm0-.69a.21.21 0 00-.2.23.2.2 0 00.2.21.21.21 0 00.21-.21.21.21 0 00-.21-.23z"/></svg>